<svg xmlns="http://www.w3.org/2000/svg" viewBox="0 0 64 64" role="img" aria-label="SmartTransit">
  <rect width="64" height="64" rx="14" fill="#087e7a"/>
  <path d="M18 20c0-4 3.2-7 7.2-7h13.6c4 0 7.2 3 7.2 7v22c0 2.5-1.5 4.7-3.6 5.8V52a2 2 0 0 1-2 2h-2.8a2 2 0 0 1-2-2v-3H28.4v3a2 2 0 0 1-2 2h-2.8a2 2 0 0 1-2-2v-4.2A6.5 6.5 0 0 1 18 42V20Z" fill="#071d2f"/>
  <path d="M23 22c0-1.7 1.3-3 3-3h12c1.7 0 3 1.3 3 3v7H23v-7Z" fill="#dff6f4"/>
  <path d="M24 35h5m11 0h-5" stroke="#dff6f4" stroke-width="3" stroke-linecap="round"/>
  <circle cx="25" cy="42" r="3" fill="#dff6f4"/>
  <circle cx="39" cy="42" r="3" fill="#dff6f4"/>
</svg>
